<?xml version="1.0" encoding="utf-8"?>
<!-- Generator: Adobe Illustrator 25.3.0, SVG Export Plug-In . SVG Version: 6.00 Build 0)  -->
<svg version="1.1" id="Capa_1" xmlns="http://www.w3.org/2000/svg" xmlns:xlink="http://www.w3.org/1999/xlink" x="0px" y="0px"
	 viewBox="0 0 512 512" style="enable-background:new 0 0 512 512;" xml:space="preserve">
<g>
	<path d="M428.9,169c-19.5,0-39,0-58.5,0c-11.2,0-17.4-6.1-17.4-17.2c0-36.5,0-73,0-109.5c0-11.2,6.2-17.3,17.3-17.3
		c39.2,0,78.3,0,117.5,0c10.9,0,17.2,6.2,17.2,17c0,36.7,0,73.3,0,110c0,10.8-6.3,17-17.1,17C468.2,169,448.6,169,428.9,169z
		 M369.3,41.2c0,37.5,0,74.4,0,111.4c40,0,79.7,0,119.4,0c0-37.4,0-74.4,0-111.4C448.7,41.2,409.1,41.2,369.3,41.2z"/>
	<path d="M257.4,345c-49,0-88.3-39.2-88.4-88.2c-0.1-48.4,39.6-87.7,88.3-87.7c47.9,0,87.5,39.5,87.6,87.5
		C345.1,305.2,305.8,344.9,257.4,345z M185,256.8c-0.1,39.7,32.2,72.1,72,72.2c39.2,0.1,71.8-32.2,71.9-71.3
		c0.2-39.8-31.8-72.4-71.1-72.7C217.7,184.8,185.2,216.8,185,256.8z"/>
	<path d="M80.9,481.5c-5.7-0.8-11.5-1.5-17.2-2.6c-6.4-1.2-8.2-3.8-8.4-10.4c-0.2-8.3-7-12.3-14.3-8.3c-6.7,3.6-8.9,3.4-14-1.9
		c-7.9-8.2-13.5-17.7-16.9-28.5C8,423,9,420.4,15,417c2.7-1.5,5.4-2.4,5.2-6.8c-0.2-4.4-0.8-7.3-5.2-9.4c-6.1-2.9-7-5.8-5.1-12.2
		c3.4-11.2,9.2-21,17.4-29.3c4.6-4.7,7.2-5.1,12.8-2.1c5.7,3,9,2.8,13.7-1.4c1-0.9,1.3-2.9,1.3-4.4c0.3-9.6,1.4-10.9,10.9-13
		c10.8-2.3,21.5-1.9,32.2,0.5c6.4,1.4,8.3,3.8,8.4,10.4c0.2,8.3,7.1,12.4,14.2,8.4c6.7-3.7,9-3.4,14.4,2.2
		c7.8,8.2,13.4,17.8,16.7,28.6c1.9,6.4,0.8,8.9-5,12.3c-7.6,4.4-7.6,11.6,0,16c5.9,3.4,6.9,6,5,12.3c-3.3,11-9.1,20.7-17.1,29
		c-4.9,5.1-7.5,5.5-13.6,2.1c-4.6-2.5-10.6-1.9-13.6,2c-1,1.2-0.9,3.4-0.9,5.2c-0.2,7.9-1.7,10-9.5,11.5
		C91.9,480.1,86.5,480.7,80.9,481.5z M26.3,429.1c2.8,4.6,5.2,9,8.1,13c0.7,0.9,3.1,1.4,4.4,1c9.8-3.4,26.4,3.3,30.9,12.6
		c0.4,0.9,1.1,1.9,1,2.8c-0.5,6.6,4,6.6,8.5,6.5c2.8-0.1,5.7,0.1,8.4-0.5c1.2-0.2,2.8-1.7,3.1-2.9c2.5-10.7,16.1-20.8,27.1-19.8
		c0.8,0.1,1.8-0.1,2.4,0.4c5.9,4.3,8.2-0.4,10.5-4.4c1.7-2.8,3.1-5.8,4.6-8.8c-1.4-0.9-2.2-1.4-3-1.9c-7.5-4.4-7.8-5.1-6.7-13.5
		c0.3-2.3,0.7-4.8,0.1-6.9c-2.3-8.4,0.7-13.8,8.6-16.9c0.2-0.1,0.3-0.5,0.9-1.5c-2.4-3.9-4.8-8.2-7.6-12.2c-0.7-0.9-3.1-1.5-4.4-1
		c-9.8,3.3-26.4-3.3-30.9-12.6c-0.4-0.9-1.1-1.9-1-2.8c0.5-6.6-3.9-6.6-8.5-6.5c-2.8,0.1-5.7-0.1-8.4,0.5c-1.2,0.2-2.8,1.7-3.1,2.9
		c-3.2,13.9-19.2,22.9-32.8,18.3c-1.1-0.4-3.2-0.1-3.7,0.7c-3,4.3-5.6,8.8-8.5,13.5c2.6,1.5,4.3,2.4,6.1,3.4
		c3.8,2.2,4.9,5.4,4.6,9.7c-0.4,4.8-0.3,9.6,0,14.4c0.3,4.1-0.9,7.2-4.5,9.2C30.7,426.6,29,427.6,26.3,429.1z"/>
	<path d="M78.1,96.3c-3.5-3.7-7-7.3-10.3-11c-5.5-6-3.6-12.6,4.5-14.5c14.3-3.3,28.5-6.6,42.9-9.6c7.8-1.6,12.4,3.3,10.3,11
		c-3.8,14.1-7.7,28.2-11.7,42.3c-2.3,7.9-9,9.5-14.8,3.7c-3-3.1-6-6.2-9.7-10.1c-55.5,67.8-69.8,142.8-43,226.4
		c-4.7,1.7-9.4,3.4-15,5.4C2.3,249.7,18,169.1,78.1,96.3z M106.8,79.4c-6.7,1.5-12.2,2.8-18.5,4.2c4.7,5,8.8,9.3,13.4,14.2
		C103.5,91.5,105,86,106.8,79.4z"/>
	<path d="M470.1,187.5c5-1.6,9.7-3.2,15.2-4.9c19.7,64.1,14.2,125.7-15.5,185.7c4,2.6,7.9,5.1,11.6,7.8c6.8,4.8,6.4,11.6-1.1,15.2
		c-13.1,6.4-26.4,12.8-39.6,18.9c-7.2,3.4-12.9-0.4-12.6-8.3c0.5-14.8,1.2-29.6,2-44.4c0.4-7.5,6.7-10.5,13.2-6.5
		c2.1,1.3,4.2,2.7,6.3,4.1c2.1,1.3,4.1,2.7,6.7,4.3C483.6,303.7,488.2,246.8,470.1,187.5z M462,382.3c-5.8-3.8-10.8-7.1-16.5-10.9
		c0,6.8,0,12.5,0,18.7C450.7,387.7,455.9,385.2,462,382.3z"/>
	<path d="M150.8,471.9c0.6-1.4,1.1-2.4,1.6-3.4c1.7-3.4,3.4-6.8,5-10c92.3,39.6,176.6,27.1,253.8-38c1.3,1.4,3.1,3.3,4.9,5.2
		c1.7,1.8,3.4,3.6,5.1,5.5C358.1,495,244.9,519.7,150.8,471.9z"/>
	<path d="M339.8,31.5c-2,5.4-3.6,9.9-5.5,15C270.7,25,209.1,29.5,149.2,60.4c-2.5-4.6-5-9.1-7.7-14C205.7,13.4,271.3,8.4,339.8,31.5
		z"/>
	<path d="M457.2,136.6c0-26.5,0-52.8,0-79.3c5.1,0,10,0,15.4,0c0,26.2,0,52.6,0,79.3C467.8,136.6,462.7,136.6,457.2,136.6z"/>
	<path d="M448.7,136.8c-5.3,0-10.2,0-15.4,0c0-21.1,0-42.1,0-63.4c5,0,10,0,15.4,0C448.7,94.3,448.7,115.3,448.7,136.8z"/>
	<path d="M424.6,136.8c-5.1,0-10.1,0-15.3,0c0-15.9,0-31.6,0-47.5c5,0,10,0,15.3,0C424.6,104.9,424.6,120.6,424.6,136.8z"/>
	<path d="M400.6,136.8c-5.2,0-10.2,0-15.4,0c0-10.5,0-20.7,0-31.4c4.9,0,10,0,15.4,0C400.6,115.6,400.6,126,400.6,136.8z"/>
	<path d="M249,304.7c0-1.6-0.1-3,0-4.3c0.4-2.8-0.8-3.9-3.5-4.8c-11.1-3.8-17.3-13.6-16.2-25.3c5,0,10.1,0,15.2,0
		c1.7,10,10.2,14.3,19.6,10.1c3.6-1.6,5.3-4.6,4.7-8.5c-0.6-3.8-3.1-6.2-7.1-6.7c-2.6-0.3-5.3-0.1-8-0.1c-12.9-0.1-23-8.7-24.6-21
		c-1.5-11.7,5.7-22.4,17.7-26.1c0.5-0.1,1-0.3,1.8-0.6c0.1-2.5,0.3-5.1,0.5-8c5.1,0,10.1,0,15.9,0c-2.1,6.7,2.3,8.6,7.4,11
		c8.7,4.1,13.1,13.3,12.1,23.5c-5,0-10.1,0-15.2,0c-1.7-10-10.2-14.3-19.6-10.1c-3.6,1.6-5.3,4.6-4.7,8.5c0.6,3.8,3.1,6.2,7.1,6.7
		c2.1,0.3,4.3,0.1,6.5,0.1c14,0,24,7.9,26.1,20.5c2,12.2-5.6,22.9-19.5,27.2c-0.1,2.4-0.3,5.1-0.4,8
		C259.8,304.7,254.7,304.7,249,304.7z"/>
	<path d="M81.2,439.9c-16.9,0.1-30.9-13.8-31.1-30.8c-0.1-16.9,13.8-31,30.7-31.1c16.9-0.1,31,13.9,31,30.8
		C112,425.7,98,439.8,81.2,439.9z M95.9,409c0-8.1-6.9-15-15-14.9c-7.8,0-14.6,6.8-14.8,14.6c-0.2,8.1,6.6,15.1,14.7,15.1
		C88.9,423.9,95.9,417.1,95.9,409z"/>
</g>
</svg>
