<?xml version="1.0" encoding="utf-8"?>
<!-- Generator: Adobe Illustrator 25.3.0, SVG Export Plug-In . SVG Version: 6.00 Build 0)  -->
<svg version="1.1" id="Capa_1" xmlns="http://www.w3.org/2000/svg" xmlns:xlink="http://www.w3.org/1999/xlink" x="0px" y="0px"
	 viewBox="0 0 512 512" style="enable-background:new 0 0 512 512;" xml:space="preserve">
<g>
	<path d="M115.7,158.6c6.4-1.6,12.1-3.3,18-4.5c3.1-0.6,4.4-2.1,5.5-5.1c5.3-13.6,11.2-26.9,16.6-40.5c0.7-1.9,0.7-4.7-0.2-6.4
		c-2.8-5.5-6.2-10.7-9.1-15.4c18.7-18.8,37.3-37.4,56.2-56.4c4.6,2.8,9.9,6.2,15.5,9.2c1.7,0.9,4.5,0.9,6.4,0.1
		c13.7-5.5,27.3-11.1,40.8-16.9c1.7-0.7,3.5-2.6,4.1-4.3c1.7-5,2.5-10.4,4.2-15.4c0.5-1.4,2.5-3.3,3.8-3.3
		c25.1-0.2,50.2-0.1,75.7-0.1c1.6,6.3,2.9,12.5,4.9,18.5c0.6,1.8,2.5,3.9,4.3,4.6c13.7,6,27.4,11.7,41.2,17.3c1.6,0.6,4,0.7,5.5-0.1
		c5.6-3,11-6.4,15.9-9.4c18.7,18.8,37.2,37.4,56.2,56.4c-2.7,4.6-6.2,9.9-9.1,15.5c-0.9,1.7-0.9,4.5-0.1,6.4
		c5.4,13.5,11.2,26.9,16.6,40.5c1,2.6,1.9,4.3,5,4.9c5.1,0.9,10.1,2.2,15,3.8c1.4,0.5,3.3,2.5,3.4,3.8c0.2,24.3,0.2,48.6,0,72.9
		c0,1.3-1.9,3.4-3.4,3.8c-4.9,1.6-10,2.4-14.9,4.1c-1.9,0.6-3.9,2.5-4.7,4.3c-5.9,13.7-11.6,27.5-17.2,41.3c-0.6,1.6-0.7,4,0.1,5.5
		c3,5.6,6.4,11,9.3,15.8c-18.7,18.8-37.3,37.4-56.3,56.4c-4.5-2.7-9.8-6.2-15.4-9.1c-1.7-0.9-4.5-0.9-6.4-0.1
		c-13.5,5.4-26.8,11.3-40.4,16.6c-2.9,1.2-4.4,2.4-5,5.5c-1,4.9-2.1,9.8-3.7,14.5c-0.5,1.4-2.5,3.4-3.8,3.4
		c-24.2,0.2-48.5,0.2-72.7,0c-1.3,0-3.3-1.6-3.7-2.9c-1.4-4.1-2.2-8.3-3.2-12.5c-1.9-7.8-6.7-10.3-14.2-7.4
		c-11.5,4.5-23.5,6.9-35.8,6.1c-7-0.4-14-1.5-20.8-3.2c-3.8-0.9-5.8-0.2-8.2,2.7c-32.3,38.1-64.6,76.2-97.2,114
		c-14,16.2-32.1,22.4-52.9,17.4c-20.8-5-34.4-18.4-39.5-39.3c-5.2-21.1,1-39.4,17.3-53.5c37.6-32.6,75.5-64.8,113.3-97
		c3.1-2.7,4.1-4.9,2.9-9.1c-5.2-19-4-37.8,3.1-56.2c2.9-7.3,0.4-12.3-6.9-14.1c-5.1-1.3-12.3-1.2-14.8-4.6
		c-2.7-3.6-1.1-10.5-1.1-15.9C115.6,200.4,115.7,179.7,115.7,158.6z M304.3,329.7c46.8,4.5,105.3-20.4,131-79.7
		c23.9-55.1,6.9-119.6-41.1-156.8c-47-36.5-113.6-36.6-160.5-0.3c-35,27.1-62,87.9-50.7,114.3c31.4-14.5,61-9.8,82.8,1.8
		c-1.6,1.4-3.2,2.5-4.5,3.8c-15.5,15.5-31,30.8-46.3,46.5c-11.8,12.1-11.3,29.2,0.7,39.8c10.8,9.5,26.1,8.8,37.2-2.2
		c15.7-15.4,31.2-31.1,46.7-46.7c1.3-1.3,2.6-2.4,4-3.7C316.4,274.3,317.6,301.8,304.3,329.7z M153.6,230.3c2.8-2.8,5.9-6.4,9.6-9.5
		c2.6-2.1,3.2-4.2,3.1-7.5c-0.2-11.7-1.2-23.5,0.3-35c11.4-86.2,93.7-144.2,178.6-125.8c66,14.3,111.6,70.4,116.7,133.5
		c4.8,59.8-27.3,120-86.2,147.3c-24,11.1-49.3,15.7-75.8,12.8c-2.3-0.3-5.5-0.1-7.1,1.2c-4.3,3.7-7.9,8.1-11.1,11.5
		c1.9,7.3,3.7,14.1,5.6,21.1c17.7,0,35.2,0,53,0c1.3-5.1,2.7-10,3.7-15c0.6-3.4,2.3-4.8,5.6-5.5c15.2-3.2,29.6-8.7,43.2-16.3
		c4.5-2.5,9-7.1,13.4-7c4.7,0.1,9.3,4.6,13.8,7.5c2.5,1.6,4,1.5,6.1-0.7c10.6-10.8,21.3-21.6,32.1-32.2c2.1-2.1,2.6-3.6,0.8-6.1
		c-2.4-3.5-4.8-7.2-6.6-11.1c-0.8-1.6-0.8-4.4,0.1-5.9c10.6-17,18.2-35.1,22.6-54.6c0.4-1.7,2.7-3.7,4.5-4.4
		c5.1-1.7,10.4-2.8,15.4-4.1c0-18.2,0-35.7,0-53.3c-5.2-1.3-10.2-2.9-15.2-3.8c-3.3-0.6-4.4-2.3-5.1-5.3c-3.1-14.9-8.5-29-15.7-42.4
		c-2.6-4.8-7.6-9.6-7.5-14.3c0-4.8,4.7-9.6,7.7-14.2c1.5-2.4,1.1-3.8-0.8-5.7c-8-7.8-15.8-15.8-23.8-23.7c-3.7-3.6-7.1-9.5-11.2-10
		c-4.1-0.6-8.9,4.3-13.3,6.8c-0.5,0.3-0.9,0.7-1.3,0.8c-1.7,0.1-3.8,0.7-5,0c-17.2-10.8-35.6-18.6-55.4-23.1
		c-1.5-0.3-3.3-2.3-3.8-3.8c-1.7-5.3-2.9-10.8-4.3-16.1c-18,0-35.5,0-53.1,0c-1.4,5.4-2.4,10.6-4.1,15.7c-0.6,1.8-2.7,4.1-4.4,4.5
		c-19.3,4.3-37.3,11.8-53.9,22.6c-2.3,1.5-4.1,1.8-6.5,0.1c-3.7-2.5-7.5-4.9-11.5-6.8c-1.2-0.6-3.8-0.4-4.7,0.5
		c-11.2,10.9-22.3,22-33.2,33.3c-0.9,1-1,3.7-0.3,5.1c2,4,4.7,7.6,6.7,11.6c0.7,1.5,0.8,4.1-0.1,5.4c-10.7,17.1-18.4,35.3-22.8,55
		c-0.4,1.6-2.5,3.5-4.2,4.1c-5.2,1.7-10.5,2.8-15.7,4.2c0,18,0,35.5,0,53.1C139.4,226.5,146.3,228.3,153.6,230.3z M234.8,216
		c-12.5-3-28.8-0.8-42.3,5.1c-36.8,16.4-53.1,57.5-38,96.2c1.4,3.6,1.2,5.6-1.9,8.2c-22.2,18.7-44.3,37.7-66.4,56.6
		c-18.3,15.7-36.6,31.3-54.9,47c-12.9,11-17.8,25.8-12.9,40.6C22.8,483.3,32,492,46,494.9c15.1,3.2,27.3-2.2,37.1-13.7
		c34.4-40.4,68.8-80.7,103.1-121.1c2.8-3.3,4.9-3.8,9-2.2c44.4,17.2,90.4-7.5,100.6-53.9c1.9-8.5,2.5-17.2,0.4-26.5
		c-2,1.9-3.5,3.3-4.9,4.7c-10.3,10.1-20,21.1-31.1,30.2c-23.2,19-57.3,9.4-67.4-18.6c-6.4-17.9-1.7-33.6,11.3-46.9
		C214,236.6,224.2,226.6,234.8,216z"/>
	<path d="M363.4,132c0-5.8,0-10.9,0-16.4c16.6,0,32.8,0,49.3,0c0,38.4,0,76.7,0,115.2c-38.3,0-76.4,0-114.9,0c0-21.7,0-43.4,0-65.8
		c10.6,0,21.3,0,32.6,0c0-11.3,0-22,0-33.1C341.4,132,352,132,363.4,132z M380.2,132.1c0,27.7,0,54.9,0,82.1c5.6,0,10.8,0,15.9,0
		c0-27.6,0-54.7,0-82.1C390.8,132.1,385.7,132.1,380.2,132.1z M347.2,148.7c0,22.1,0,43.9,0,65.5c5.6,0,10.8,0,15.9,0
		c0-22,0-43.7,0-65.5C357.8,148.7,352.7,148.7,347.2,148.7z M330.2,181.9c-5.7,0-10.9,0-16.1,0c0,11,0,21.6,0,32.4
		c5.5,0,10.7,0,16.1,0C330.2,203.4,330.2,192.8,330.2,181.9z"/>
	<path d="M278.4,88.4c1.6,4.8,3.2,9.7,4.9,15c-31.3,11.3-52.7,32.5-63.9,64c-5.2-1.7-10.1-3.3-14.9-4.8
		C212.2,130,245.7,96.6,278.4,88.4z"/>
	<path d="M406.2,268c-4,4.5-7.7,8.7-11.2,12.7c-4.3-3.9-8.1-7.4-12.2-11.1c3.6-4,6.8-7.7,10.3-11.6
		C397.4,261.3,401.6,264.5,406.2,268z"/>
	<path d="M313.5,98.5c-4.9,0.4-9.6,0.8-14.9,1.3c-0.9-5.3-1.7-10.5-2.6-16.3c6-0.5,11.6-1,17.5-1.5C313.5,87.8,313.5,93,313.5,98.5z
		"/>
	<path d="M331.7,312.7c-0.9-6-1.7-10.8-2.5-16.3c4.9-1.2,9.6-2.3,14.8-3.5c1.7,5.2,3.2,10,5.1,15.7
		C343.2,309.9,337.7,311.2,331.7,312.7z"/>
	<path d="M365.5,302c-2.7-5.3-4.9-9.9-7.4-14.8c4.3-2.6,8.5-5.1,13.1-7.9c3.1,4.4,6,8.6,9.5,13.4C375.6,295.8,370.9,298.7,365.5,302
		z"/>
	<path d="M82.6,454.7c-0.1,13.5-11.2,24.6-24.7,24.7c-13.7,0-24.9-11.2-24.9-25c0.1-13.7,11.4-24.8,25.2-24.6
		C71.7,429.9,82.7,441.1,82.6,454.7z M57.9,446.3c-4.5,0-8.2,3.7-8.3,8.2c0,4.5,3.7,8.3,8.2,8.3c4.5,0,8.2-3.7,8.3-8.2
		C66.1,450.1,62.4,446.3,57.9,446.3z"/>
	<path d="M96.7,427.1c-3.8-4-7.2-7.7-10.9-11.7c3.7-3.2,7.6-6.6,11.8-10.3c2.7,3,6.3,6.9,10,11C104.3,419.4,100.7,423,96.7,427.1z"
		/>
	<path d="M130.7,392.8c-3.2,3-7,6.5-11,10.2c-3.2-3.4-6.9-7.2-10.3-10.8c3.5-3.4,7.2-7.1,10.8-10.6
		C123.3,385,126.9,388.8,130.7,392.8z"/>
	<path d="M143.1,379.4c-3.4-3.5-6.9-7.2-10.3-10.7c3.2-3.3,6.6-6.8,10.2-10.5c3.4,3.7,6.9,7.6,10.6,11.8
		C150.5,372.8,146.8,376.1,143.1,379.4z"/>
</g>
</svg>
