<?xml version="1.0" encoding="utf-8"?>
<!-- Generator: Adobe Illustrator 25.3.0, SVG Export Plug-In . SVG Version: 6.00 Build 0)  -->
<svg version="1.1" id="Capa_1" xmlns="http://www.w3.org/2000/svg" xmlns:xlink="http://www.w3.org/1999/xlink" x="0px" y="0px"
	 viewBox="0 0 512 512" style="enable-background:new 0 0 512 512;" xml:space="preserve">
<g>
	<path d="M511.5,454c-0.5,1.4-1,2.7-1.5,4.1c-3.9,12-14.6,20.8-26.6,21.8c-13.4,1.2-25.5-5.2-31.3-17c-1.7-3.5-3.6-4.3-7.2-4.2
		c-23.6,0.1-47.2,0.1-70.8,0c-3.2,0-4.9,0.7-6.4,3.8c-6.1,12.6-19.5,19.3-33,17.2c-13.8-2.2-24.3-13.1-26.4-27.5
		c-1.9-12.9,5.6-26.1,18-32.3c1.8-0.9,3.5-2.8,4.4-4.6c2-4.2,5-6.6,9.6-6.6c4.7,0,7.5,2.7,9.5,6.8c0.9,1.9,2.4,3.8,4.1,4.9
		c6.1,3.5,11.1,8,13.9,14.5c1.2,2.7,2.7,3.6,5.6,3.6c24.3-0.1,48.6-0.1,72.8,0c2.6,0,4.2-0.5,5.4-3.2c3-7,8.4-11.8,15.1-15.3
		c1.5-0.8,3-3.1,3-4.7c0.2-24.6,0.2-49.2,0.1-73.8c0-1.4-0.8-3.5-1.9-4c-9.4-4.2-15.3-11.4-18.6-21.4c-7.6,0-15.3,0-22.9,0
		c-17.3,0-34.6,0.1-51.9-0.1c-3.1,0-4.6,0.8-5.7,3.9c-2.6,7.3-7.8,12.5-14.5,16.5c-1.9,1.1-3.5,3.2-4.4,5.2c-2,4.1-4.6,6.9-9.4,7
		c-4.9,0.1-8-2.4-9.9-6.9c-0.8-1.8-2.5-3.7-4.3-4.6c-12-6-19.4-18.7-18.1-31.3c1.5-13.9,11.3-25.2,24.6-28.1
		c13.2-2.9,26.8,2.7,33.8,14.7c1.7,2.9,3.6,3.7,6.7,3.7c24.4-0.1,48.9-0.1,73.3,0c2.9,0,4.7-0.6,6.4-3.4c7.3-12,18.3-17.3,32.2-15.1
		c13,2,21.3,10.1,25.3,22.6c0.4,1.1,0.7,2.2,1.1,3.3c0,3.7,0,7.3,0,11c-3.5,10.5-9.1,19-19.8,23.5c-0.9,0.4-1.5,2.5-1.5,3.7
		c-0.1,24.8-0.1,49.5,0,74.3c0,1.2,0.8,3.2,1.7,3.6c10.6,4.6,16.3,13.1,19.6,23.7C511.5,446.6,511.5,450.3,511.5,454z M479.9,319.5
		c6.4,0.1,11.5-5,11.5-11.3c-0.1-6.1-5-11-11.2-11.1c-6.4-0.1-11.5,5-11.4,11.3C468.8,314.5,473.8,319.4,479.9,319.5z M350.9,448.4
		c-0.1-6-5.2-11.1-11.2-11.1c-6.2,0-11.4,5.2-11.3,11.5c0.1,6.1,5.2,11.1,11.2,11.1C345.9,459.9,351,454.7,350.9,448.4z
		 M480.1,459.9c6-0.1,11.1-5.2,11.2-11.2c0.1-6.1-5.3-11.5-11.4-11.4c-6,0.1-11.1,5.2-11.2,11.2C468.6,454.6,474,459.9,480.1,459.9z
		 M339.5,297.2c-6.2,0-11,4.9-11.1,11c-0.1,6.4,4.9,11.4,11.3,11.3c6.2-0.1,11-4.9,11.1-11C350.9,302.1,345.9,297.1,339.5,297.2z"/>
	<path d="M511.5,199.5c-0.6,1.5-1.1,3.1-1.7,4.6c-4.4,12.2-13,19.7-25.8,21.3c-13.7,1.7-24.4-3.8-31.4-15.8
		c-1.8-3.1-3.5-4.3-7.2-4.3c-21.8,0.2-43.6,0.2-65.3,0c-3.7,0-5.8,0.8-7.7,4.3c-7.4,13.8-24,19.6-38.6,13.9
		c-14.2-5.5-22.6-20.6-19.6-35.3c3.1-15.3,17.4-26.5,33-25.4c3,0.2,4.4-0.5,5.8-3.1c11.4-21.2,22.9-42.4,34.4-63.5
		c1.4-2.6,1.6-4.4-0.3-7.1c-9.6-13.4-7.5-31.2,4.7-41.9c12-10.5,29.9-10.4,41.9,0.3c11.8,10.6,13.8,28.5,4.4,41.6
		c-1.8,2.6-1.9,4.3-0.4,7c11.6,21.1,23,42.3,34.6,63.4c0.8,1.5,3,3.2,4.5,3.1c16.7-0.5,29.1,8.4,33.8,24.5c0.2,0.8,0.6,1.5,0.9,2.3
		C511.5,192.8,511.5,196.1,511.5,199.5z M412.6,185.1c8.1,0,16.3-0.4,24.4,0.1c7.9,0.5,14.5,0.1,17.5-9.1c0.8-2.5,1.5-4.1,0.1-6.6
		c-11.6-21.1-23.3-42.2-34.3-63.5c-2.8-5.5-6.9-3.3-10.6-3.4c-1.6-0.1-3.9,2-4.8,3.7c-10.4,18.7-20.4,37.7-30.8,56.4
		c-3.5,6.2-7.2,12-0.5,18.3c0.2,0.2,0.3,0.6,0.4,0.9c0.7,2.8,2.5,3.4,5.2,3.3C390.4,185.1,401.5,185.1,412.6,185.1z M480,205.5
		c6.2,0,11.5-5.3,11.3-11.5c-0.1-6-5.3-11-11.3-11c-6.1,0-11.2,5-11.3,11C468.5,200.2,473.7,205.4,480,205.5z M412.7,59.7
		c-6.1,0-11.1,4.8-11.3,10.9c-0.2,6.4,4.8,11.6,11.1,11.6c6.1,0,11.1-4.9,11.3-10.9C423.9,64.9,419,59.8,412.7,59.7z M345.3,205.5
		c6.1-0.1,11-5,11.1-11.1c0.1-6.3-5.1-11.4-11.4-11.3c-6.1,0.1-11.1,5.1-11.1,11.1C333.8,200.4,339,205.5,345.3,205.5z"/>
	<path d="M200.2,319.7c1.7,0.1,2.7,0.2,3.7,0.2c11.2,0.2,13.9,3,14,14.5c0,9.9,0,19.9,0,29.5c0.9,0.4,1.2,0.7,1.5,0.7
		c13.2,1.5,15.7,5.2,11.9,18c-8.7,29.3-17.4,58.6-26,87.8c-2.3,7.9-4.9,9.8-13.3,9.8c-29.3,0-58.5,0-87.8,0
		c-8.6,0-11.2-1.9-13.6-10.1c-8.8-29.6-17.5-59.2-26.3-88.8c-3.3-11.1,0-15.9,11.6-16.7c0.5,0,1-0.2,2.3-0.5c0-3.4,0-7,0-10.5
		c0-7.1,0-14.3,0-21.4c0.1-8.7,3.4-12.1,12-12.3c1.3,0,2.7,0,4-0.1c0.3,0,0.6-0.3,1.2-0.6c-0.5-1.5-0.9-3-1.4-4.5
		c-8.7-23.3-17.2-46.7-26-70c-4.3-11.4-3.5-22,2.7-32.5c9.7-16.5,19.2-33,28.6-49.7c6.7-11.9,16.5-17.7,30.1-17.5
		c12.5,0.2,24.9,0.1,37.4,0c13.4-0.1,23.2,5.6,29.7,17.3c9.4,16.6,18.9,33.2,28.6,49.6c6.3,10.6,7.2,21.4,2.8,32.9
		c-8.8,23.1-17.3,46.3-25.9,69.5C201.4,316,200.9,317.5,200.2,319.7z M158.8,165.4c-0.4,0.8-0.6,1.1-0.6,1.4
		c-0.1,12.5,0,24.9-0.2,37.4c-0.1,3.7,0.8,5.8,4.5,7.6c12.5,6.2,19.1,20.5,16.3,33.9c-3,14.2-14.4,24.1-29,25.3
		c-13.1,1.1-26.5-7.5-31.3-20.3c-5-13.1-1.5-28.8,10.6-35.8c8.4-4.9,9.3-10.7,8.9-18.8c-0.5-8.5-0.1-17-0.1-25.4c0-1.6,0-3.2,0-5.3
		c-7.9,0.3-15.7-2.1-20.5,6.4c-9.8,17.3-19.8,34.6-29.8,51.8c-2.4,4.2-2.7,8.4-1,12.9c9.9,26.6,19.8,53.2,29.6,79.9
		c0.9,2.6,2.1,3.7,4.9,3.6c18-0.1,35.9,0,53.9-0.2c1.6,0,4-1.7,4.6-3.1c10.2-26.9,20.3-53.8,29.9-80.8c1.2-3.4,0.8-8.6-1-11.8
		c-9.6-17.7-19.9-35-29.8-52.4c-2.3-4-5.6-6-10.1-6.2C165.2,165.3,162.1,165.4,158.8,165.4z M158.1,460c9.2,0,17.7,0.1,26.1-0.1
		c1.4,0,3.3-1.8,3.8-3.2c2.2-6.3,3.9-12.7,5.8-19c5.1-17.3,10.2-34.6,15.5-52.3c-41.1,0-81.7,0-122.8,0
		c7.4,24.9,14.7,49.7,22.1,74.5c9.8,0,19.2,0,29.2,0c0-3.6-0.1-7.1,0-10.5c0.3-6.7,3.9-10.4,10.2-10.3c6.2,0.1,9.8,3.8,10,10.6
		C158.2,452.8,158.1,456.1,158.1,460z M98.5,364.4c33.1,0,65.8,0,98.6,0c0-8.2,0-16,0-24c-33,0-65.7,0-98.6,0
		C98.5,348.4,98.5,356.2,98.5,364.4z M148,250.7c6.1-0.1,11.1-5,11.1-11.1c0.1-6.3-5.1-11.3-11.4-11.3c-6.1,0.1-11.1,5-11.1,11.1
		C136.5,245.7,141.7,250.8,148,250.7z"/>
	<path d="M185.3,79.8c0,5.6,0.1,10.8,0,16.1c-0.1,7-3.8,10.8-10.9,10.8c-17.6,0.1-35.3,0.1-52.9,0c-7.5,0-11.1-3.9-11.2-11.5
		c-0.1-5,0-9.9,0-15.7c-2.3,0-4.4,0-6.5,0c-12.5,0-24.9,0.1-37.4-0.1c-3.2,0-4.8,0.8-6.4,3.9C53,97.7,36.7,104.2,21.7,99
		C7.3,94-1.7,79,0.9,64.4c2.8-16.1,16.4-27.3,32.4-26.5c12.1,0.6,21.2,6.5,26.7,17.3c1.7,3.3,3.5,4.1,6.8,4.1
		c14.3-0.1,28.6-0.1,43.5-0.1c0-5.5,0-10.6,0-15.7c0.1-7.8,3.9-11.7,11.6-11.7c17.3-0.1,34.6-0.1,51.9,0c7.6,0,11.3,3.7,11.5,11.3
		c0.1,5.1,0,10.2,0,15.7c1.9,0.2,3.4,0.4,4.8,0.4c13.1,0,26.3-0.1,39.4,0.1c3.1,0,4.6-1,6-3.8c6.8-13.7,21.2-20.2,35.9-16.7
		c14.1,3.4,23.9,16.4,23.7,31.3c-0.2,14.6-10.5,26.9-25.1,30.1c-13.7,3-28-3.9-34.4-17c-1.4-2.8-2.9-3.8-6-3.8
		c-13.1,0.2-26.3,0.1-39.4,0.1C188.8,79.5,187.3,79.7,185.3,79.8z M130.7,86.4c11.8,0,23,0,34.2,0c0-11.5,0-22.7,0-34
		c-11.6,0-22.9,0-34.2,0C130.7,63.9,130.7,75,130.7,86.4z M43.4,69.2c0-6-5.2-11.1-11.1-11.2c-6.1-0.1-11.6,5.3-11.5,11.4
		c0.1,6,5.2,11.1,11.2,11.2C38.1,80.7,43.4,75.4,43.4,69.2z M264,80.6c6.3-0.1,11.3-5.5,11-11.8c-0.2-6-5.5-11-11.5-10.9
		c-6,0.1-11.1,5.3-11.1,11.3C252.4,75.5,257.8,80.7,264,80.6z"/>
	<path d="M350.1,378.7c-0.1,5.6-4.6,9.9-10.3,9.7c-5.3-0.1-9.7-4.6-9.7-9.9c0-5.3,4.8-10.1,10.2-10.1
		C345.8,368.4,350.2,373,350.1,378.7z"/>
	<path d="M138,409c-0.1-5.7,4.1-10.1,9.9-10.1c5.6-0.1,10.1,4.4,10.1,10c0,5.2-4.4,9.8-9.7,10C142.7,419.1,138.1,414.7,138,409z"/>
</g>
</svg>
