<?xml version="1.0" encoding="utf-8"?>
<!-- Generator: Adobe Illustrator 25.3.0, SVG Export Plug-In . SVG Version: 6.00 Build 0)  -->
<svg version="1.1" id="Capa_1" xmlns="http://www.w3.org/2000/svg" xmlns:xlink="http://www.w3.org/1999/xlink" x="0px" y="0px"
	 viewBox="0 0 512 512" style="enable-background:new 0 0 512 512;" xml:space="preserve">
<g>
	<path d="M512,310.2c0,1.3,0,2.7,0,4c-12.5-0.1-25,0-37.5-0.3c-3.7-0.1-4.5,1.5-5.7,4.5c-5,13.2-10,26.5-15.8,39.4
		c-2,4.4-1.7,6.6,1.8,9.9c31.5,30.1,30.6,80.3-1.8,109c-32.6,28.9-82,24-108.3-10.7c-1.1-1.4-2.2-2.8-3.3-4.3
		c-26.6,11-53.9,16.9-82.4,17.1c-14,0.1-28,0.2-42,0c-3.6-0.1-5,1.1-5.7,4.5c-0.9,4.6-2.1,9.1-3.3,13.6c-2.5,9.3-9.3,14.9-18.2,15
		c-9.1,0.1-16.1-5.6-18.7-15.1c-1.5-5.8-2.9-11.6-4.5-17.9c-10.8,0-21.4,0-32,0c-13,0-19.2-6.3-19.2-19.4c0-8.7-0.1-17.4,0.1-26
		c0.1-3.1-0.8-5.2-3.3-7.2c-13.9-11.5-26.3-24.7-36.6-39.5c-3.3-4.7-6.7-6.9-12.6-7.9c-31.5-5.7-52.7-24.1-60.4-55.2
		c-7.8-31.5,2.6-57.8,28.1-78c1.6-1.3,2.8-3.6,3.1-5.7c1-5.7,1.1-11.6,2.1-17.4c1.9-10.5,4.2-20.8,6.3-31.3
		c-43.7-22.1-53.5-74.8-28.3-110.4c24.8-34.8,78.6-44.5,114.6-8c0.5-0.3,1.1-0.5,1.7-0.8c20.3-13.8,42.1-24.1,65.8-30.7
		c1.7-0.5,3.4-2.9,4-4.7c5.9-17.6,17.5-29.8,35.4-34.3c9.3-2.3,19.5-2.1,29.2-1.8c22.1,0.7,40.2,15.1,46.4,36.2
		c0.9,2.9,2.2,4.3,5.1,5.1c17.3,4.7,33.7,11.5,49.2,20.5c4.3,2.5,8.5,4,13.6,4c9.3,0,15.7,5.9,16.6,14.7c0.4,4,0.2,8,0.2,12
		c0,7.4,0,14.9,0,22.4c3.1,0,5.5,0,8.3,0c0-2.2,0-4,0-5.8c0-19.5,0-39.1,0-58.6c0-11.2,6.5-17.6,17.7-17.8c4.3-0.1,8.7,0,13,0
		c12.2,0.1,18.5,6.3,18.6,18.4c0,19.5,0,39.1,0,58.6c0,1.8,0,3.5,0,5.2c3.1,0,5.4,0,8.3,0c0-2.2,0-4.1,0-6.1c0-29.2,0-58.4,0-87.7
		c0-1.5,0-3,0-4.5c0.4-10.4,6.7-16.7,17-17.1c4.7-0.2,9.3-0.1,14,0c12.1,0.1,18.4,6.6,18.5,18.7c0,31.6,0,63.1,0,94.7
		c0,12.1-6.4,18.6-18.5,18.6c-15.3,0.1-30.7,0-46,0c-1.7,0-3.4,0-5.3,0c5.4,10.2,10.6,19.5,15.4,29c1.4,2.8,2.7,4.1,6.2,4.2
		c29.7,1.2,48.5,31.5,36,58.1c-2.7,5.7-7.2,10.6-10.7,15.5c4,4.7,8.6,9.4,12.4,14.8c5.7,8.2,6.3,18.1,7.5,27.7
		C509.2,291.1,510.7,300.6,512,310.2z M411.2,313.9c0-1.2-0.1-2,0-2.8c1.3-10.8,2.9-21.5,4-32.3c1.3-12.7,4.5-24.6,14.1-33.8
		c2.1-2,4.4-3.9,6.7-6c-11.2-9.8-16.9-21.8-15.5-36.5c1.4-14.7,9.7-25.1,22.8-33.1c-7.1-11.5-14-22.5-20.7-33.6
		c-1.7-2.8-3.8-3.6-7-3.5c-16.8,0.1-33.7,0.1-50.5,0.1c-12.8,0-19.1-6.3-19.1-19c0-7.8-0.2-15.7,0.1-23.5c0.2-5.7,1.2-11.4,1.9-18.4
		c-10.8-4.2-22.8-8.9-35.4-13.9c-1.8,13-7.4,22.4-14.8,31.1c-2.7,3.2-5,6.8-7.9,9.7c-7.4,7.5-10.7,15.8-10.1,26.7
		c0.8,13.3-11.1,24-24.3,24c-13.2,0-24.1-10.6-24.6-24c-0.1-3.5,0.2-7-0.2-10.5c-0.3-2.3-1-4.9-2.4-6.7c-6.1-8.1-12.6-16-18.9-23.9
		c-5.3-6.6-8.8-14.1-10.5-22.4c-0.2-1.1-0.7-2.1-1.1-3.3c-21.5,6.3-41.2,15.7-59.4,28.5c14.1,28.1,14.1,55.5-4.4,81
		c-18.6,25.7-44.7,34.3-76.4,29.4c-2.5,12.7-5,25.2-7.6,38.3c46.2-13.3,81.4,13.2,93,43c6.6,17,7.2,34.2,1.2,51.4
		c-9.1,26-27.9,41.8-55.2,49.2c9.2,10.2,17.7,19.7,26.7,29.8c4.5-10.1,11.8-12.2,20.9-12.2c36.1,0.2,72.3,0.1,108.4,0.1
		c11.9,0,18.6,6.6,18.6,18.6c0.1,13.9,0,27.7,0,41.6c0,1.8,0,3.5,0,5.6c24.8-1.2,48-6,70.1-15.4c-9.2-30.9-3.9-58.1,19.5-79.8
		c24.2-22.5,52.5-25.2,83.7-12.4c5.5-13.2,10.9-26.5,16.7-40.6C438.7,313.9,425.1,313.9,411.2,313.9z M16.6,123.9
		c-0.1,31.7,25.8,57.8,57.4,57.9c31.5,0.1,57.7-25.9,57.9-57.5c0.2-31.9-25.8-58.1-57.7-58.1C42.5,66.3,16.7,92.1,16.6,123.9z
		 M179.5,462.5c2.5,10.1,4.9,19.6,7.4,29.1c0.4,1.4,1.8,2.4,2.7,3.6c0.9-1.2,2.3-2.3,2.6-3.7c2.3-8.4,4.5-16.7,6.4-25.2
		c0.7-3.1,2-3.9,5-3.9c11.5,0.2,23,0.1,34.5,0.1c2.9,0,5.9,0,8.8,0c0-16.8,0-32.9,0-49.2c-38.3,0-76.4,0-114.5,0
		c0,16.5,0,32.7,0,49.3C148.2,462.5,163.7,462.5,179.5,462.5z M395.2,380c0-5.8,0-10.6,0-15.5c-27.6,2.6-49.9,29.5-49,58.6
		c0.9,27.7,24.2,53.8,49.4,54.6c0-5,0.2-9.9-0.1-14.9c-0.1-1.1-1.5-2.4-2.6-3.1c-11.2-6.6-16-17.4-13-30c5.1,0,10.2,0,14.5,0
		c1.4,4.9,1.6,10.2,4.1,13.7c3.1,4.3,8.7,2.3,13.4,2.4c0.1-1.5,0.2-2.4,0.2-3.2c0.2-10.6-1.1-12-11.4-13.4
		c-10.9-1.4-20-9.8-21.1-20.9c-0.9-9.2-0.2-18.6-0.2-28.4C384.7,380,389.7,380,395.2,380z M412.2,478c28.2-3.6,49.8-29,49.2-57.6
		c-0.6-28.5-22.7-53.8-49.3-55.9c0,4.5-0.3,9,0.1,13.4c0.2,1.7,1.5,3.9,2.9,4.8c10.8,6.3,15.7,17.5,12.6,30.3c-3.5,0-7.1,0-10.8,0
		c-1.5,0-2.9-0.2-3.7-0.2c-1.2-4.9-1.4-9.9-3.7-13.5c-3-4.6-8.6-2.8-13.3-2.6c-2.1,12,0.1,15.2,11.3,16.7
		c9.7,1.3,19.1,9.1,20.1,18.9c1,9.9,0.2,19.9,0.2,30.4c-5.2,0-10.4,0-15.7,0C412.2,468,412.2,472.8,412.2,478z M263.8,100.2
		c2.6-1.3,4.7-1.8,5.7-3c7.1-8.6,14.4-17.1,20.8-26.2c14.5-20.4,3.1-48.8-21.5-53.4c-6.6-1.2-13.6-1-20.4-0.8
		c-13.8,0.4-24.3,6.7-30.5,19.2c-6.3,12.6-4.9,25,3.5,36.3c6.3,8.4,12.9,16.5,19.7,24.6c1.2,1.4,3.4,1.9,6,3.2c0-6-0.1-10.5,0.1-15
		c0.1-2.7-0.8-4-3.2-5.3c-10.7-5.8-15.5-17.2-12.2-28.4c3.1-10.8,12.5-18,23.7-18c11.3,0,20.8,7.3,23.9,18.4
		c2.9,10.6-1.6,21.9-11.5,27.4c-3.3,1.8-4.4,3.8-4.1,7.4C264.1,90.4,263.8,94.4,263.8,100.2z M493.3,297.1c-1.1-8.7-2-16.8-3.3-24.8
		c-2-12.6-12.4-22.7-24.6-24.1c-13.5-1.6-26.7,5.3-30.6,17.9c-3.1,9.8-3.8,20.4-5.6,31C451.1,297.1,471.8,297.1,493.3,297.1z
		 M461.5,231.2c13.8,0,24.7-11,24.6-24.8c0-13.5-10.9-24.4-24.4-24.5c-13.8-0.1-24.8,10.8-24.8,24.5
		C436.8,220.3,447.7,231.2,461.5,231.2z M96.9,321.9c2.7-11.2,2.9-21.9-0.1-32.8c-7.9,0-15.4,0-22.9,0c-7.4,0-14.9,0-22.1,0
		c-3,11.3-2.9,23.2,0.1,32.8C66.7,321.9,81.6,321.9,96.9,321.9z M494,115.5c0-33,0-65.7,0-98.6c-5.4,0-10.5,0-15.7,0
		c0,33,0,65.8,0,98.6C483.7,115.5,488.8,115.5,494,115.5z M436.5,115.5c0-22.1,0-43.8,0-65.4c-5.6,0-10.8,0-16.3,0
		c0,21.2,0,42,0,62.8c0,0.8,0.2,1.6,0.3,2.6C425.9,115.5,431,115.5,436.5,115.5z M114.7,322.2c3.9,0,8,0.2,12.1-0.1
		c1.2-0.1,2.9-1.5,3.2-2.7c2.6-9.2,2.5-18.4,0-27.6c-0.3-1.1-1.8-2.4-2.8-2.5c-4.3-0.3-8.6-0.1-12.5-0.1
		C114.7,300.2,114.7,310.8,114.7,322.2z M378.7,115.6c0-11.2,0-21.9,0-32.6c-5.5,0-10.5,0-15.6,0c0,11,0,21.7,0,32.6
		C368.5,115.6,373.4,115.6,378.7,115.6z M33.6,322.2c0-11.4,0-22,0-33c-3.9,0-8-0.2-12.1,0.1c-1.2,0.1-2.9,1.6-3.2,2.7
		c-2.3,9-2.3,18.2,0,27.2c0.3,1.2,2,2.7,3.1,2.8C25.6,322.4,29.7,322.2,33.6,322.2z M58.7,338.9c-0.4,0.4-0.7,0.8-1.1,1.2
		c5.3,6.7,10.6,13.3,16.7,20.9c6.1-7.7,11.3-14.4,16.5-21c-0.3-0.4-0.7-0.8-1-1.1C79.4,338.9,69.1,338.9,58.7,338.9z M89.8,272.2
		c0.3-0.4,0.7-0.7,1-1.1c-5.2-6.6-10.5-13.2-16.6-20.9c-6.1,7.7-11.3,14.4-17.4,22C69,272.2,79.4,272.2,89.8,272.2z M247.2,116.1
		c0.3,5.4-1.8,11.4,3.9,14.6c2.3,1.3,6.4,1.3,8.7,0c5.6-3.2,3.8-9.1,3.8-14.5C258.1,116.1,252.9,116.1,247.2,116.1z M255.4,49.7
		c-4.4,0.1-8.3,4-8.1,8.4c0.1,4.5,4,8.1,8.6,7.9c4.4-0.2,7.9-3.8,7.9-8.1C263.7,53.5,259.8,49.7,255.4,49.7z M27.4,339.2
		c6,7.9,12.7,13.9,22.4,18.5c-2.6-4.5-5.4-7.7-6.5-11.3c-2.3-7.5-7.3-9-14-7.8C29,338.7,28.7,338.8,27.4,339.2z M121.5,338.6
		c-4,0-6.8-0.2-9.6,0.1c-1.3,0.1-3,0.8-3.6,1.8c-3.1,5.4-5.9,10.9-9.3,17.2C108.2,353.1,115.1,347.2,121.5,338.6z M49.4,253.5
		c-9.3,4.7-16.1,10.5-22.3,19c4,0,6.8,0.2,9.5-0.1c1.3-0.1,3-0.9,3.5-1.9C43.3,265.3,46,259.9,49.4,253.5z M121.2,272.2
		c-6.1-8.3-13-14.1-22.5-18.8c2.8,4.9,5.7,8.3,7,12.3c2.1,6.4,6.2,7.9,12.1,6.9C118.5,272.4,119.3,272.4,121.2,272.2z"/>
	<path d="M346.1,216.5c4.6,1.2,8.7,2.2,12.6,3.4c12.5,4,20.5,15.2,20.3,28.4c-0.1,12.7-8.5,23.9-20.8,27.6c-3.9,1.2-8,2.1-12.2,3.2
		c0,11.1,0,22,0,32.8c0,11.8-6.5,18.2-18.2,18.3c-4.8,0-9.7,0.1-14.5,0c-9.4-0.2-16.4-6.6-16.4-15.9c0-4.3-1.4-7.2-5.1-8.7
		c-6.5-2.8-13-6.3-19.9-7.4c-7.9-1.3-16.1-0.3-24.9-0.3c0,1.8,0,3.7,0,5.7c0,14,0.1,28,0,42.1c-0.1,10.9-6.6,17.5-17.4,17.6
		c-5.2,0.1-10.3,0.1-15.5,0c-9.5-0.2-16.3-6.9-16.4-16.6c-0.1-14.5,0-29,0-43.6c0-1.8,0-3.6,0-5.4c-4.2-0.7-8.1-1-11.7-1.9
		c-24.3-6-40.2-28.8-37.4-53.6c2.9-25.4,23.5-43.7,49.9-44c21.5-0.2,43-0.1,64.5,0c11.2,0.1,21.5-2.6,30.4-9.5c1.7-1.3,3-4,3.1-6.1
		c0.7-10.9,6.8-17.2,17.8-17.5c4.7-0.1,9.3-0.1,14,0c11.1,0.3,17.6,6.9,17.7,18C346.1,194.2,346.1,205.2,346.1,216.5z M214.6,214.9
		c0,22.3,0,43.9,0,66.1c15.1,0,29.9-0.3,44.7,0.1c7.9,0.2,15.9,1.1,23.7,2.5c4.6,0.8,8.9,3.2,13.5,5c0-27.3,0-54.2,0-81.8
		c-14.1,8.1-29,8.5-44.1,8.3C239.9,214.7,227.4,214.9,214.6,214.9z M329.4,313.6c0-44,0-87.7,0-131.3c-5.6,0-10.8,0-15.9,0
		c0,44,0,87.6,0,131.3C318.9,313.6,324,313.6,329.4,313.6z M197.6,280.4c0-21.7,0-43.5,0-65.2c-17.2-1.1-32.5,14.3-32.6,32.4
		C164.9,265.9,180,281.3,197.6,280.4z M214.5,347c4.6,0,8.5-0.2,12.5,0.1c3.1,0.2,4-0.9,4-4c-0.2-10.1-0.1-20.3-0.1-30.5
		c0-4.9,0-9.9,0-14.9c-5.8,0-11,0-16.4,0C214.5,314.1,214.5,330.2,214.5,347z M346.3,261.6c11.3-1.6,16.6-6.3,16.2-14.3
		c-0.3-7.7-6-12.3-16.2-13.1C346.3,243.4,346.3,252.5,346.3,261.6z"/>
	<path d="M41.2,124.1c0-6.5-0.1-13,0-19.5C41.6,87,58.6,77.3,73.8,86.1c10.2,5.9,20.4,12,30.4,18.3c14.9,9.4,15.1,29.6,0.2,39.1
		c-10.2,6.5-20.7,12.8-31.2,18.7c-14.5,8.2-31.3-1.4-31.9-18.1C41,137.5,41.2,130.8,41.2,124.1z M57.9,123.8c0,6.3-0.1,12.7,0,19
		c0.1,5.3,3.4,7.3,7.9,4.6c9.8-5.7,19.4-11.5,29.1-17.5c5.6-3.5,5.5-8.6-0.2-12.1c-9.5-5.8-19-11.6-28.6-17.2c-4.9-2.9-8-1-8.1,4.7
		C57.8,111.5,57.9,117.7,57.9,123.8z"/>
	<path d="M164.8,429.8c0,5.4,0,10.4,0,15.8c-5.4,0-10.6,0-16.1,0c0-5.2,0-10.3,0-15.8C153.9,429.8,159.1,429.8,164.8,429.8z"/>
	<path d="M197.8,429.7c0,5.5,0,10.5,0,15.8c-5.3,0-10.5,0-16.1,0c0-5.2,0-10.4,0-15.8C187,429.7,192.1,429.7,197.8,429.7z"/>
	<path d="M230.7,429.7c0,5.4,0,10.3,0,15.7c-5.4,0-10.7,0-16.3,0c0-5.3,0-10.3,0-15.7C219.8,429.7,225,429.7,230.7,429.7z"/>
	<path d="M246.9,240c0,5.4,0,10.5,0,15.8c-5.3,0-10.4,0-15.8,0c0-5.3,0-10.3,0-15.8C236.3,240,241.4,240,246.9,240z"/>
	<path d="M280,240c0,5.4,0,10.3,0,15.7c-5.2,0-10.4,0-15.9,0c0-5.2,0-10.3,0-15.7C269.3,240,274.4,240,280,240z"/>
</g>
</svg>
