<?xml version="1.0" encoding="utf-8"?>
<!-- Generator: Adobe Illustrator 25.3.0, SVG Export Plug-In . SVG Version: 6.00 Build 0)  -->
<svg version="1.1" id="Capa_1" xmlns="http://www.w3.org/2000/svg" xmlns:xlink="http://www.w3.org/1999/xlink" x="0px" y="0px"
	 viewBox="0 0 512 512" style="enable-background:new 0 0 512 512;" xml:space="preserve">
<g>
	<path d="M442.2,41.2c-98.5,0-196.3,0-294.8,0c-0.1,2-0.3,3.9-0.3,5.7c0,12.7,0.1,25.4,0,38.1c-0.1,18.6-12.3,30.9-31,31.1
		c-14.5,0.1-28.9,0-44.2,0c0,2.5,0,4.6,0,6.7c0,41.2,0,82.3,0,123.5c0,2,0.1,4-0.2,5.9c-0.5,4.1-3,6.5-7,6.9
		c-4.3,0.4-7.3-1.7-8.4-5.9c-0.5-1.9-0.5-3.9-0.5-5.8c0-45.3,0-90.6-0.1-135.8c0-4.8,1.5-8.4,5-11.8c23.3-23.1,46.4-46.2,69.5-69.5
		c3.8-3.9,7.7-5.5,13.2-5.5c98.1,0.1,196.1,0.1,294.2,0.2c4.4,0,6.9-0.9,9-5.2c7.2-14.1,23.1-20.9,38.6-17.3
		c15,3.5,26.1,16.9,26.7,32.4c0.1,1.8,0.1,3.6,0.1,5.4c0,88.9,0,177.9-0.1,266.8c0,4-1,8.2-2.6,11.8c-6.1,13.7-12.6,27.2-18.9,40.9
		c-2.6,5.8-6.3,10-13.1,10.1c-7.1,0.1-10.9-4.2-13.6-10.2c-6.3-13.8-12.9-27.5-19.1-41.4c-1.5-3.3-2.3-7.2-2.3-10.8
		c-0.1-86.4-0.1-172.9-0.1-259.3C442.2,46.1,442.2,44,442.2,41.2z M495.9,98.5c-12.8,0-25,0-37.4,0c-0.1,1.4-0.2,2.4-0.2,3.4
		c0,68.2,0,136.3,0,204.5c0,1.4-0.1,3,0.4,4.2c5.9,12.9,12,25.8,18.3,39.5c5.8-12.3,11.3-23.7,16.4-35.3c1.4-3.1,2.3-6.8,2.3-10.2
		c0.1-66.7,0.1-133.5,0.1-200.2C495.9,102.5,495.9,100.6,495.9,98.5z M130.9,55.2c-14.8,14.6-30,29.7-45,44.6
		c10.6,0,22,0.4,33.3-0.1c6.9-0.3,11.5-5.5,11.7-12.4C131.1,76.2,130.9,65.1,130.9,55.2z M495.8,49.6c0-5.3,0.4-10.3-0.1-15.2
		c-0.8-9.4-9-16.7-18.4-16.8c-9.4-0.1-17.8,7-18.8,16.4c-0.5,5.1-0.1,10.2-0.1,15.6C470.9,49.6,483,49.6,495.8,49.6z M458.6,66.1
		c0,5.5,0,10.5,0,15.6c12.5,0,24.7,0,36.9,0c0-5.4,0-10.4,0-15.6C483.1,66.1,471,66.1,458.6,66.1z"/>
	<path d="M352.2,457.7c-34.2,0-68.4,0-102.5-0.1c-3.3,0-5.4,1-7.7,3.5c-7.7,8.3-15.7,16.2-23.8,24c-6.9,6.5-16.5,6.8-24.1,1.1
		c-4-3-7.8-6.3-11.6-9.6c-2-1.8-3.7-2.8-6.6-1.4c-2.7,1.3-4.9,2.4-5,6c-0.2,5-0.8,10-1.4,15c-1.1,9.4-8.6,16.4-18.1,16.6
		c-10.9,0.2-21.8,0.2-32.7,0c-9.5-0.2-17-7.2-18.1-16.6c-0.6-5.2-0.9-10.3-1.6-15.5c-0.7-5.3-6.9-7.6-11-4.3
		c-3.7,3.1-7.4,6.2-11.2,9.2c-8.3,6.6-18.2,6.2-25.7-1.2c-7.4-7.2-14.8-14.6-22-22c-7.4-7.6-7.8-17.5-1.2-25.7
		c2.9-3.6,5.9-7.2,8.9-10.7c1.8-2,2.9-3.7,1.4-6.6c-1.3-2.7-2.4-4.9-5.9-5c-5-0.2-10-0.8-15-1.4C8,411.8,1,404.3,0.8,394.8
		c-0.2-10.9-0.2-21.8,0-32.7c0.2-9.5,7.1-17,16.6-18.1c5.2-0.6,10.3-0.9,15.5-1.6c5.3-0.7,7.7-6.8,4.3-11c-3.2-3.9-6.5-7.6-9.6-11.6
		c-6.2-7.9-5.8-17.7,1.1-24.9c7.4-7.7,15.1-15.3,22.8-22.8c7.2-6.9,17-7.3,24.9-1.2c4,3.1,7.7,6.4,11.6,9.6c4.1,3.4,10.3,1,11-4.2
		c0.7-5.1,1-10.3,1.6-15.5c1.1-9.4,8.5-16.4,18-16.6c10.9-0.2,21.8-0.2,32.7,0c9.5,0.2,17,7.1,18.1,16.5c0.5,4.3,0.8,8.5,1.2,12.8
		c0.3,3.4,0.5,6.3,4.6,8c4,1.7,5.9-0.3,8.4-2.3c3.4-2.9,6.8-5.9,10.3-8.6c7.5-5.7,17.2-5.5,24.1,1c8,7.6,15.9,15.5,23.5,23.5
		c6.5,6.8,6.9,16.5,1.2,24.1c-3.2,4.3-6.8,8.3-10.2,12.4c-2.9,3.5-0.6,9.9,4,10.5c5.3,0.7,10.7,1,16,1.7c9.5,1.1,16.4,8.5,16.6,18
		c0.2,10.9,0.2,21.8,0,32.7c-0.2,9.8-7.2,17.1-17,18.2c-4.3,0.5-8.5,0.9-12.8,1.2c-3.6,0.2-6.1,1.1-7.7,5.1c-1.7,4,0.8,5.6,2.5,7.8
		c2.5,3.2,5.8,6,7.7,9.6c2.5,4.5,6,5.1,10.6,5.1c66-0.1,132.1-0.1,198.1-0.1c14,0,18.4-4.3,18.4-18.1c0-11.3,0-22.5,0-33.8
		c0-6.3,3-10,7.9-10c4.9-0.1,8.1,3.7,8.1,9.9c0,12.3,0.1,24.7,0,37c-0.1,18.7-12.5,31.1-31.5,31.2
		C419.8,457.7,386,457.7,352.2,457.7z M230.8,308c-0.8-1.1-1.3-2-2-2.8c-6.8-6.9-13.7-13.6-20.5-20.5c-2.1-2.1-3.8-1.9-6-0.1
		c-4.7,4.1-9.8,7.9-14.4,12.1c-4.4,4-8.8,4.9-14.1,1.8c-3.4-1.9-7.1-3.5-10.9-4.5c-5.4-1.5-7.3-5-7.7-10.2
		c-0.4-6.4-1.2-12.8-1.7-19.2c-0.2-3.1-1.7-4.3-4.8-4.2c-9.1,0.1-18.3,0.2-27.4,0c-3.8-0.1-5.1,1.5-5.3,5
		c-0.5,6.4-1.2,12.8-1.6,19.2c-0.3,4.8-2.5,7.9-7.2,9.5c-4.4,1.4-8.7,3.4-12.8,5.3c-4,1.9-7.5,1.5-10.9-1.4
		c-5.2-4.4-10.5-8.6-15.6-13.1c-2.6-2.3-4.5-2-6.8,0.4c-6.3,6.6-12.8,13-19.4,19.3c-2.7,2.6-2.5,4.5-0.1,7.2
		c4.3,4.8,8.2,10,12.4,14.8c3.4,3.9,3.7,7.8,1.3,12.3c-1.9,3.6-3.6,7.4-4.7,11.3c-1.6,5.5-5.2,7.6-10.7,7.9
		c-6.2,0.3-12.5,1.2-18.7,1.6c-3.4,0.2-4.6,1.8-4.5,5.2c0.2,8.9,0.2,17.9,0,26.8c-0.1,4,1.6,5.4,5.3,5.6c6.4,0.4,12.8,1.1,19.2,1.6
		c4.6,0.4,7.6,2.4,9.1,7c1.4,4.2,3.1,8.4,5.1,12.4c2.3,4.6,1.9,8.4-1.5,12.3c-4.3,4.8-8.2,10-12.4,14.8c-2.1,2.4-2.6,4.3,0,6.8
		c6.7,6.5,13.3,13,19.7,19.7c2.5,2.6,4.3,2.3,6.8,0.1c4.8-4.2,10-8.2,14.8-12.4c3.8-3.4,7.7-4,12.3-1.6c3.8,1.9,7.8,3.7,11.8,4.9
		c5.3,1.6,7.3,5,7.6,10.3c0.4,6.4,1.2,12.8,1.7,19.2c0.2,3.1,1.7,4.3,4.8,4.2c9.1-0.1,18.3-0.2,27.4,0c3.8,0.1,5.1-1.6,5.3-5
		c0.5-6.4,1.2-12.8,1.7-19.2c0.4-4.8,2.4-7.9,7.3-9.4c4.2-1.3,8.4-3.2,12.3-5.2c4.4-2.2,8.1-1.7,11.8,1.5c5,4.4,10.3,8.4,15.2,12.8
		c2.6,2.3,4.5,2,6.8-0.4c6.3-6.6,12.8-13,19.4-19.3c2.7-2.6,2.5-4.6,0.1-7.2c-4.2-4.7-7.9-9.7-12.1-14.4c-3.6-4-4.2-7.9-1.7-12.7
		c1.9-3.6,3.6-7.4,4.8-11.3c1.6-5.5,5.2-7.6,10.6-7.9c6.2-0.3,12.5-1.2,18.7-1.6c3.4-0.2,4.6-1.8,4.5-5.1c-0.2-8.9-0.2-17.9,0-26.8
		c0.1-4-1.6-5.4-5.3-5.6c-6.4-0.4-12.8-1.1-19.2-1.6c-4.6-0.4-7.6-2.4-9.1-7c-1.5-4.4-3.3-8.7-5.4-12.8c-2.1-4.2-1.6-7.8,1.4-11.4
		c4.3-5,8.5-10.1,12.7-15.3C229.3,310.5,230,309.2,230.8,308z"/>
	<path d="M297.6,196.4c0-3.3,0-6.5,0-9.7c0-12.5,4.7-17.3,17.1-17.3c6.6,0,13.2,0,20.5,0c0-4.9-0.1-9.3,0-13.7
		c0.2-10.1,5.3-15.1,15.4-15.3c6.8-0.1,13.6-0.1,20.4-0.1c0.3,0,0.7-0.2,1.8-0.6c0-3.7-0.1-7.8,0-11.8c0.2-10.1,5.2-15.2,15.3-15.3
		c7.9-0.1,15.7-0.1,23.6,0c9.5,0.2,14.7,5.2,14.7,14.7c0.1,42.4,0.1,84.8,0,127.2c0,9.8-5.1,14.8-15,14.8
		c-45.5,0.1-90.9,0.1-136.4,0c-9.8,0-14.9-5.1-15-15c-0.2-14-0.2-27.9,0-41.9c0.1-10,5.4-14.9,15.5-15.1c6.8-0.1,13.6-0.1,20.4-0.2
		C296.3,197.1,296.6,196.9,297.6,196.4z M410.1,128.6c-5.5,0-10.3,0.3-15.1-0.1c-4.9-0.4-6.3,1.2-6.3,6.2
		c0.2,37.4,0.1,74.8,0.1,112.2c0,1.9,0,3.8,0,5.8c7.5,0,14.4,0,21.2,0C410.1,211.2,410.1,170.3,410.1,128.6z M372.5,156.5
		c-5.6,0-10.6,0.3-15.6-0.1c-4.4-0.3-5.8,1.1-5.8,5.6c0.2,28.4,0.1,56.9,0.1,85.3c0,1.7,0,3.5,0,5.3c7.5,0,14.4,0,21.2,0
		C372.5,220.6,372.5,188.9,372.5,156.5z M334.8,252.8c0-22.6,0-44.7,0-67.3c-5.7,0-11.1,0.2-16.4-0.1c-3.9-0.2-4.8,1.3-4.8,5
		c0.1,18.6,0.1,37.2,0.1,55.8c0,2.1,0,4.2,0,6.6C321,252.8,327.7,252.8,334.8,252.8z M297.1,253.2c0-13.7,0-26.5,0-39.7
		c-6.3,0-12.2-0.1-18,0.1c-1,0-2.9,1.7-2.9,2.7c-0.2,12.1-0.1,24.2-0.1,36.6c2.2,0.1,3.8,0.3,5.3,0.3
		C286.6,253.2,291.7,253.2,297.1,253.2z"/>
	<path d="M348.8,363.4c-18.2,0-36.5,0-54.7,0c-1.4,0-2.9,0.1-4.3,0c-4.9-0.4-8.3-3.7-8.2-8.2c0.1-4.3,3.3-7.5,7.9-7.9
		c1.1-0.1,2.1,0,3.2,0c37.2,0,74.4,0,111.6,0c0.2,0,0.4,0,0.5,0c7.2,0,10.9,2.8,10.8,8.2c-0.1,5.2-3.7,7.9-10.5,7.9
		c-9.7,0-19.3,0-29,0C367,363.4,357.9,363.4,348.8,363.4z"/>
	<path d="M172.7,191.7c-18.2,0-36.5,0-54.7,0c-1.6,0-3.2,0.1-4.8-0.1c-4.6-0.4-7.2-3-7.5-7.6c-0.3-4.4,2.7-7.8,7.3-8.3
		c1.9-0.2,3.9-0.1,5.9-0.1c36.1,0,72.2,0,108.3,0c1.6,0,3.2-0.1,4.8,0.1c4.6,0.5,7.7,3.9,7.6,8.2c-0.1,4.4-3.1,7.5-7.9,7.7
		c-4.5,0.2-8.9,0.1-13.4,0.1C203.1,191.7,187.9,191.7,172.7,191.7z"/>
	<path d="M363.4,326.9c-13.9,0-27.9,0-41.8,0c-6.3,0-9.9-3.1-10-8c0-5,3.7-8.1,9.9-8.1c28.1,0,56.1,0,84.2,0c6.3,0,9.9,2.9,9.9,8
		c0,5.1-3.5,8.1-9.8,8.1C391.7,326.9,377.6,326.9,363.4,326.9z"/>
	<path d="M187.6,155.2c-13.9,0-27.9,0-41.8,0c-6.5,0-9.9-2.7-10-7.8c-0.1-5.2,3.6-8.3,10.2-8.3c27.9,0,55.8,0,83.6,0
		c6.3,0,10,3,10.1,8c0.1,5.2-3.5,8.1-10.3,8.1C215.5,155.2,201.5,155.2,187.6,155.2z"/>
	<path d="M354.4,383.8c6.6,0,13.2-0.1,19.8,0c5.8,0.1,9.2,3.3,9.1,8.2c-0.1,4.7-3.4,7.8-8.9,7.8c-13.4,0.1-26.8,0.1-40.1,0
		c-5.3,0-8.9-3.4-8.9-8c0-4.6,3.5-8,8.8-8.1C340.8,383.7,347.6,383.8,354.4,383.8z"/>
	<path d="M178.3,228.2c-6.6,0-13.2,0.1-19.8,0c-5.7-0.1-9.3-3.4-9.2-8.2c0.1-4.5,3.7-7.8,9.1-7.9c13.4-0.1,26.7-0.1,40.1,0
		c5.5,0,8.8,3.3,8.8,8c0,4.8-3.2,7.9-8.7,8C191.8,228.3,185,228.2,178.3,228.2z"/>
	<path d="M299,399.9c-3.2,0-6.4,0.2-9.6,0c-4.6-0.3-7.8-3.7-7.8-8c0-4.3,3.2-7.8,7.8-8c6.4-0.2,12.9-0.2,19.3,0
		c4.6,0.2,7.8,3.8,7.8,8c0,4.2-3.2,7.7-7.8,8C305.4,400.1,302.2,399.9,299,399.9z"/>
	<path d="M122.9,212.1c3,0,6.1-0.1,9.1,0c5,0.3,8.3,3.5,8.3,8c0,4.5-3.3,7.8-8.2,8c-6.1,0.2-12.1,0.2-18.2,0
		c-5.1-0.1-8.2-3.3-8.3-7.9c0-4.5,3.2-7.7,8.2-8.1c0.4,0,0.7,0,1.1,0C117.6,212.1,120.3,212.1,122.9,212.1z"/>
	<path d="M231.7,220.1c0.1,4.3-3.3,7.8-7.6,8c-4.5,0.2-8.3-3.4-8.4-7.9c0-4.4,3.8-8.2,8.2-8.1C228.1,212.3,231.6,215.9,231.7,220.1z
		"/>
	<path d="M129.6,147.3c-0.1,4.5-3.8,8-8.4,7.8c-4.3-0.2-7.7-3.8-7.6-8.1c0.1-4.2,3.7-7.8,7.9-7.9C125.9,139,129.7,142.8,129.6,147.3
		z"/>
	<path d="M305.7,318.6c0.1,4.2-3.3,8-7.5,8.2c-4.4,0.3-8.4-3.3-8.5-7.8c-0.1-4.3,3.2-8,7.5-8.2C301.6,310.6,305.5,314.2,305.7,318.6
		z"/>
	<path d="M399.9,383.9c4.2,0.1,7.8,3.7,7.9,7.9c0,4.4-3.8,8.2-8.2,8.1c-4.5-0.1-8-4-7.8-8.5C391.9,387.2,395.6,383.8,399.9,383.9z"
		/>
	<path d="M423.4,69.9c-4.2,0.1-7.9-3.2-8.1-7.5c-0.3-4.6,3.1-8.3,7.7-8.4c4.6-0.1,8.3,3.5,8.3,7.9C431.2,66,427.5,69.7,423.4,69.9z"
		/>
	<path d="M338.5,53.9c4.3,0.1,7.8,3.6,7.9,7.8c0,4.4-3.9,8.2-8.2,8.1c-4.5-0.1-7.9-3.9-7.7-8.5C330.6,57,334.1,53.8,338.5,53.9z"/>
	<path d="M253.3,53.9c4.5-0.1,8.3,3.6,8.2,8c-0.1,4.1-3.8,7.8-7.9,7.9c-4.5,0.1-8.1-3.6-8-8.2C245.6,57.3,248.9,54,253.3,53.9z"/>
	<path d="M168.4,69.8c-4.5-0.2-7.9-3.9-7.7-8.5c0.2-4.4,3.7-7.5,8.2-7.4c4.3,0.1,7.8,3.6,7.8,7.9C176.7,66.1,172.7,70,168.4,69.8z"
		/>
	<path d="M135,311.4c12.7,0,24.4,3.3,35.1,9.9c6.2,3.8,8,8.1,5.3,12.6c-2.7,4.6-7.3,4.9-13.6,1.3c-19-11-38.1-10.9-56.1,1.6
		c-17.7,12.2-24.8,30.1-20.8,51.1c4.1,21.7,17.8,35.7,39.5,40.3c20.3,4.3,37.7-2,50.5-18.5c12.9-16.6,14.2-34.9,5.5-54
		c-0.6-1.3-1.4-2.5-2-3.8c-2.2-4.6-1.2-9,2.6-11.2c4-2.4,8.7-1.2,11.4,3.4c6.8,11.3,10,23.7,9.4,36.9c-1.5,34.9-28.2,62.2-62.8,64.4
		c-34.4,2.2-64.6-21.7-70.5-56C61.7,348.9,93.7,311.3,135,311.4z"/>
	<path d="M134.8,343.6c19.2-0.2,34.9,15.3,35.1,34.5c0.2,19.5-15.3,35.1-34.9,35.2c-19.1,0.1-34.7-15.5-34.8-34.7
		C100.1,359.3,115.5,343.8,134.8,343.6z M135.1,397.1c10.4-0.1,18.6-8.3,18.6-18.8c0-10.4-8.4-18.7-18.8-18.6
		c-10.5,0.1-18.7,8.3-18.6,18.8C116.4,389,124.7,397.2,135.1,397.1z"/>
</g>
</svg>
