<?xml version="1.0" encoding="utf-8"?>
<!-- Generator: Adobe Illustrator 25.3.0, SVG Export Plug-In . SVG Version: 6.00 Build 0)  -->
<svg version="1.1" id="Capa_1" xmlns="http://www.w3.org/2000/svg" xmlns:xlink="http://www.w3.org/1999/xlink" x="0px" y="0px"
	 viewBox="0 0 512 511" style="enable-background:new 0 0 512 511;" xml:space="preserve">
<g>
	<path d="M120,511c-3-2.6-6.1-5-8.9-7.8C76.2,468.1,41.4,433,6.5,397.9c-7.5-7.5-7.5-11.9-0.2-19.3c14.4-14.5,28.9-28.9,43.2-43.4
		c7-7.1,15.2-10.9,25.4-10.5c1.5,0.1,3.9-1.1,4.6-2.4c33.1-58.1,105.4-72.3,157.4-52.3c2.5,1,5.5,1.4,8.2,1.4
		c34,0.1,68.1,0.2,102.1,0c13.9-0.1,25.8,3.7,36.7,16.4c1-2,1.4-4,2.7-5.2c18.9-19.6,37.8-39.2,56.9-58.6
		c18.8-19.2,50.9-14.5,63.5,9.1c7,13,4.7,33.2-5.3,45.3c-18.4,22.1-36.8,44.1-55.2,66.1c-9.5,11.3-19.1,22.5-28.4,34
		c-18,22.1-41.5,32.5-69.6,32.7c-43,0.3-86,0.4-129-0.1c-14.8-0.2-23.9,8.1-32.9,17.6c-0.7,0.7-0.6,2.5-0.4,3.6
		c2.2,11.7-0.8,21.5-9.4,29.9c-15.1,14.7-30,29.6-45.1,44.4c-1.7,1.7-3.8,3.1-5.8,4.6C124,511,122,511,120,511z M173.8,412.7
		c0.9-0.8,2.1-1.7,3.1-2.8c12.5-13.8,28-19.2,46.7-18.9c41.1,0.6,82.3,0.2,123.5,0.2c19.8,0,38-5.4,51.1-20.5
		c30.2-34.9,59.4-70.6,88.9-106c7.2-8.6,6.1-20.6-2-27.8c-8-7.2-20-6.7-27.8,1.4c-21.2,21.7-42.4,43.5-63.5,65.4
		c-1.1,1.2-2.1,3.1-2.1,4.6c-0.2,26.6-16.7,43-43.4,43c-24.7,0-49.5,0-74.2,0c-9,0-13.7-3.6-13.7-10.1c0-6.6,4.7-9.9,13.8-9.9
		c24.7,0,49.5,0,74.2,0c2.5,0,5-0.1,7.4-0.5c10.3-1.9,17.4-12.3,15.5-22.6c-1.9-10.8-9.8-16.8-22.4-16.8c-35.5,0-71,0-106.6-0.1
		c-3.6,0-7.3-0.6-10.6-1.9c-30.9-11.8-61.5-10.7-91.4,2.8c-19.8,8.9-34.6,23.6-44.6,42.4C121.9,360.7,147.8,386.6,173.8,412.7z
		 M125.3,487.1c12.1-12.7,24.8-26.1,37.5-39.3c5.7-5.9,5.8-11,0-16.8c-27.3-27.4-54.7-54.7-82.1-82c-5.8-5.8-10.9-5.7-16.7,0.1
		c-12.3,12.3-24.6,24.7-36.9,37c-0.7,0.7-1.2,1.4-2.3,2.7C57.9,421.1,90.7,453.2,125.3,487.1z"/>
	<path d="M298.4,219.4c-60.7,0.1-109.8-49-109.8-109.8C188.7,49.2,237.8,0,298.2,0C358.8,0,408,49.2,408,109.9
		C407.9,170.4,358.9,219.3,298.4,219.4z M298.3,199.5c49.5,0,89.6-40,89.8-89.4c0.1-49.7-40.1-90.1-89.7-90.1
		c-49.4,0-89.7,40.1-89.8,89.5C208.5,159.2,248.5,199.4,298.3,199.5z"/>
	<path d="M228.8,349.5c-5.4,0-10.2-4.7-10.1-10.2c0.1-5.3,4.6-9.7,9.9-9.7c5.5,0,9.8,4.1,9.9,9.6
		C238.7,344.8,234.3,349.5,228.8,349.5z"/>
	<path d="M306.2,60.4c5,3.5,9.8,6.3,13.9,9.7c4.8,4,5.1,9.8,1.5,14.1c-3.6,4.3-9.3,4.6-14.3,1c-2.7-1.9-5.4-4-8.5-5
		c-5.4-1.8-11.3,2.1-12.3,7.7c-1,5.4,2.8,10.7,8.4,11.6c3.4,0.5,7,0.6,10.3,1.6c12.2,4,19.3,12.7,20.9,25.3
		c1.5,12-4.7,23.8-15.6,29.4c-3.3,1.7-4.7,3.5-4.2,7.2c0.3,2.4,0.2,5,0,7.5c-0.5,5.4-4.8,9-10.1,8.9c-5.1-0.1-10-3.9-9.4-8.9
		c1.1-9.2-2.2-14.6-10.5-18.2c-3.3-1.4-5.9-4.8-8.2-7.8c-3.4-4.3-2.6-10,1.3-13.4c3.9-3.4,9.1-3.4,13.2,0.1c2.3,1.9,4.2,4.3,6.7,6
		c4.6,3.2,9.8,3.3,13.4,0.3c3.2-2.7,4.5-6.1,3.5-10.2c-1.2-4.7-4.9-7.2-11-7.6c-12.2-0.8-21.1-6.8-26-17.9
		c-4.8-10.9-3.3-21.5,4.3-30.8c2.5-3,5.7-5.7,9.2-7.4c3.2-1.7,4.2-3.5,3.9-6.9c-0.2-2.5-0.2-5,0-7.5c0.5-5.3,4.8-9.3,9.9-9.2
		c5.1,0,9.5,4,9.8,9.4C306.4,53.2,306.2,57.2,306.2,60.4z"/>
</g>
</svg>
