<?xml version="1.0" encoding="utf-8"?>
<!-- Generator: Adobe Illustrator 25.3.0, SVG Export Plug-In . SVG Version: 6.00 Build 0)  -->
<svg version="1.1" id="Capa_1" xmlns="http://www.w3.org/2000/svg" xmlns:xlink="http://www.w3.org/1999/xlink" x="0px" y="0px"
	 viewBox="0 0 512 512" style="enable-background:new 0 0 512 512;" xml:space="preserve">
<g>
	<path d="M513,143c-0.7,1.5-1.4,2.9-2,4.4c-4.7,11-16.4,17.5-28,15.4c-12-2.2-20.8-12.3-21.1-24.4c-0.2-10.8-0.2-21.6-0.2-32.5
		c0-0.1-0.2-0.2-0.6-0.6c-0.7,0.5-1.5,0.9-2.2,1.5c-70.2,63.4-145.8,119.9-224.2,172.7C173,321,109.4,359.5,44.4,395.9
		C23.8,407.4,10,402.7,1,381c0-3.3,0-6.7,0-10c3.4-10.4,11.3-16,20.5-21.1c113.4-63.4,222.2-133.8,324-214.7
		c25.3-20.1,49.6-41.5,74.3-62.3c1-0.8,1.9-1.8,3.5-3.3c-1.9-0.2-3.1-0.5-4.3-0.5c-8.7,0-17.3,0.1-26-0.1c-14.1-0.3-25-11.4-25-25.3
		c-0.1-14.1,10.9-25.6,25.1-25.7c31.5-0.2,63-0.1,94.5,0c11.1,0,20.2,6.8,24,17.2c0.5,1.2,0.9,2.5,1.4,3.7
		C513,73.7,513,108.3,513,143z M496,90.8c0-14.7,0-29.3,0-44c0-8.9-2.8-11.7-11.6-11.7c-29.3,0-58.7,0-88,0c-1.8,0-3.7,0.1-5.4,0.6
		c-3.7,1.2-6.4,4.1-5.7,7.8c0.5,2.9,2.8,5.7,5,7.8c1.1,1.1,3.8,0.8,5.7,0.8c16,0.1,32,0,48,0.1c7.1,0,11.5,4.6,9.8,10.5
		c-0.7,2.4-2.6,4.7-4.5,6.3c-30.9,26.6-61.3,54-93.1,79.4c-95.1,75.9-196.6,142.3-302.1,202.7c-10.4,6-20.9,11.8-31.3,17.7
		c-3.5,2-5.9,5.4-4.4,9.1c1.2,2.8,4.2,5.5,7.1,6.6c2.1,0.8,5.5-0.8,7.8-2.1c62.6-34.8,123.9-71.8,183.5-111.5
		c86.7-57.9,170.1-120,246.4-191.4c3-2.8,6.2-4.6,10.3-2.8c4.3,1.9,5.5,5.4,5.4,9.8c-0.1,16.5-0.1,33,0.1,49.5
		c0,2.6,0.9,6.1,2.7,7.5c2.1,1.6,5.9,2.3,8.6,1.7c4.2-0.9,5.6-4.7,5.6-9C495.9,121.1,496,105.9,496,90.8z"/>
	<path d="M440,513c-10.7-3.5-18.4-9.8-20.5-21.5c-0.4-2.3-0.4-4.6-0.4-7c0-92,0-183.9,0-275.9c0-18.1,10.5-28.5,28.5-28.5
		c9.8,0,19.7,0,29.5,0c16.5,0.1,27.2,10.6,27.3,27.2c0.1,32.5,0,65,0,97.5c0,58.6-0.3,117.3,0.2,175.9c0.1,15.9-5,27.1-20.6,32.3
		C469.3,513,454.7,513,440,513z M487.3,347c0-46.1,0-92.3,0-138.4c0-8.6-2.8-11.4-11.4-11.4c-9.7,0-19.3-0.1-29,0
		c-7.6,0-10.8,3.1-10.8,10.5c0,92.6,0,185.3,0,277.9c0,7.2,3.2,10.3,10.5,10.3c8.5,0.1,17,0,25.5,0c13.9,0,15.2-1.4,15.2-15
		C487.3,436.3,487.3,391.7,487.3,347z"/>
	<path d="M131,1c6.3,1.3,12.8,2.2,19,3.8c55,14.1,92.2,64.3,89.9,121.1c-2.4,55.9-44,102.9-99.5,112.3
		C73.2,249.6,10.1,202.4,1.9,134.8c-0.2-1.3-0.6-2.6-0.9-3.8c0-7,0-14,0-21c0.3-1.4,0.8-2.8,0.9-4.3C7.7,57.5,43,17.1,90.1,5
		c6.2-1.6,12.6-2.7,18.9-4C116.3,1,123.7,1,131,1z M18,120.6c0.3,56.6,46.3,102.5,102.6,102.3c56.9-0.2,102.6-46.4,102.3-103.6
		c-0.3-56.1-47-101.7-103.6-101.3C63.6,18.5,17.7,64.9,18,120.6z"/>
	<path d="M337,513c-0.5-0.3-1-0.8-1.6-1c-12.4-4.4-18.5-12.8-18.5-26c0-73,0-145.9,0-218.9c0-16.6,10.6-27.1,27.1-27.2
		c10.7,0,21.3-0.1,32,0c15,0.1,26,10.9,26,25.8c0.1,73.8,0.1,147.6,0,221.4c0,13.9-8.3,21.8-21,25.8C366.3,513,351.7,513,337,513z
		 M385,376.8c0-36.3,0-72.6,0-109c0-7.9-3-10.8-10.9-10.8c-10,0-20,0-30,0c-7.1,0-10.2,3-10.2,9.9c0,73,0,145.9,0,218.9
		c0,7,3.1,10.1,10.1,10.1c9.8,0.1,19.7,0,29.5,0c8.8,0,11.6-2.8,11.6-11.7C385,448.4,385,412.6,385,376.8z"/>
	<path d="M235,513c-0.6-0.3-1.1-0.7-1.7-0.9c-12.2-4-19-12.8-19-25.7c-0.1-50.5-0.1-100.9,0-151.4c0-16.1,11-26.7,27.2-26.8
		c10.5-0.1,21-0.1,31.5,0c15.6,0.1,26.6,10.8,26.7,26.3c0.2,50.6,0.1,101.3,0,151.9c0,14-7.9,22.3-20.7,26.6
		C264.3,513,249.7,513,235,513z M282.7,411c0-24.7,0-49.3,0-74c0-9.1-2.8-11.8-12-11.9c-9.5,0-19,0-28.5,0c-7.6,0-10.8,3-10.8,10.5
		c0,50-0.1,99.9,0,149.9c0,7.2,3.2,10.3,10.5,10.3c9.7,0.1,19.3,0,29,0c9.1,0,11.8-2.7,11.8-12C282.7,459.6,282.7,435.3,282.7,411z"
		/>
	<path d="M133,513c-10.1-3.2-17.8-8.9-20.3-19.8c-0.5-2.4-0.7-4.9-0.7-7.4c0-30.1-0.1-60.3,0-90.4c0-16.6,10.6-27.3,27.1-27.3
		c10.5,0,21-0.1,31.5,0c15.9,0.1,26.6,10.6,26.6,26.7c0.1,30.3,0.1,60.6,0,90.9c0,13.8-5.9,21.9-19,26.6c-0.4,0.2-0.8,0.6-1.1,0.9
		C162.3,513,147.7,513,133,513z M180.1,441c0-15.3,0-30.6,0-46c0-7-3.1-10-10.1-10c-10.3-0.1-20.7-0.1-31,0c-6.9,0-10,3.2-10,10.2
		c0,30.1,0,60.3,0,90.4c0,7.2,3.1,10.3,10.4,10.3c10,0.1,20,0,30,0c7.8,0,10.7-3,10.7-11C180.1,470.3,180.1,455.7,180.1,441z"/>
	<path d="M30,513c-3.5-1.8-7.3-3.2-10.5-5.5c-6.6-4.8-9.8-11.6-9.9-19.8c-0.1-14.3-0.3-28.7,0-43c0.3-15.1,11.1-25.5,26.2-25.7
		c11-0.1,22-0.1,33,0c14.9,0.2,25.8,11.1,26,26c0.2,12.2,0,24.3,0,36.5c0,18.2-4.2,24.5-20.9,31.4C59.3,513,44.7,513,30,513z
		 M26.7,465.6c0,6.8-0.1,13.7,0,20.5c0.1,6.7,3.2,9.8,9.8,9.8c10.5,0.1,21,0.1,31.5,0c6.6-0.1,9.8-3.3,9.8-9.9
		c0.1-13.3,0.1-26.7,0-40c-0.1-6.6-3.3-9.8-9.9-9.9c-10.5-0.1-21-0.1-31.5,0c-6.6,0.1-9.6,3.2-9.7,10
		C26.6,452.6,26.7,459.1,26.7,465.6z"/>
	<path d="M129,63c0,15.1,0,29.7,0,44.4c0,1.7,0,3.3,0,5.1c2.9,1,5.8,1.9,8.5,3c16.6,7.1,26.4,23.4,25.5,42
		c-0.8,16.7-12.6,32.1-29.1,37.5c-2.7,0.9-4.9,1.6-5.6,5.1c-0.8,3.8-4.1,5.7-7.9,5.6c-3.8,0-7.1-2.1-7.8-5.8c-0.6-3.5-2.7-4-5.3-4.8
		c-17-5.6-28.9-21.3-29.4-38.3c-0.2-6.4,2.8-10.3,7.9-10.6c5.1-0.3,8.9,3.5,9,9.7c0.1,8.6,7.7,20.6,16.8,22.1c0-16.4,0-32.8,0-49.6
		c-1-0.3-2.3-0.8-3.5-1.2c-18.6-6.1-30.3-21.8-30.3-40.7c0-19.1,11.8-34.9,30.5-41.1c1.5-0.5,3.1-2.1,3.7-3.6c1.6-4,4.2-6.5,8.5-6.5
		c4.1,0,7.2,2.3,8,6.3c0.6,3,2.3,3.5,4.6,4.2c17.3,5.6,29.4,21.2,29.9,38.5c0.2,6.3-2.8,10.4-7.9,10.7c-5,0.3-8.6-3.5-9.1-9.7
		C145.2,74.5,138.6,65.6,129,63z M111.7,63c-10,2.8-16.9,12.8-16.8,23.7c0.1,10.6,7.2,20.4,16.8,23C111.7,94.2,111.7,78.8,111.7,63z
		 M129,131.1c0,15.4,0,30.4,0,45.4c0,0.4,0.2,0.9,0.4,1.3c9.1-2.3,16.4-12.1,16.6-22.4C146.3,144.3,139.5,134.4,129,131.1z"/>
</g>
</svg>
